<svg xmlns="http://www.w3.org/2000/svg">
<symbol id="i-mic" viewBox="0 0 24 24" fill="none" stroke="currentColor" stroke-width="2" stroke-linecap="round" stroke-linejoin="round"><path d="M12 2a3 3 0 0 0-3 3v7a3 3 0 0 0 6 0V5a3 3 0 0 0-3-3Z"/><path d="M19 10v2a7 7 0 0 1-14 0v-2"/><line x1="12" x2="12" y1="19" y2="22"/></symbol>
<symbol id="i-palette" viewBox="0 0 24 24" fill="none" stroke="currentColor" stroke-width="2" stroke-linecap="round" stroke-linejoin="round"><circle cx="13.5" cy="6.5" r=".6"/><circle cx="17.5" cy="10.5" r=".6"/><circle cx="8.5" cy="7.5" r=".6"/><circle cx="6.5" cy="12.5" r=".6"/><path d="M12 2C6.5 2 2 6.5 2 12s4.5 10 10 10c.926 0 1.648-.746 1.648-1.688 0-.437-.18-.835-.437-1.125-.29-.289-.438-.652-.438-1.125a1.64 1.64 0 0 1 1.668-1.668h1.996c3.051 0 5.555-2.503 5.555-5.554C21.965 6.012 17.461 2 12 2z"/></symbol>
<symbol id="i-globe" viewBox="0 0 24 24" fill="none" stroke="currentColor" stroke-width="2" stroke-linecap="round" stroke-linejoin="round"><circle cx="12" cy="12" r="10"/><path d="M12 2a14.5 14.5 0 0 0 0 20 14.5 14.5 0 0 0 0-20"/><path d="M2 12h20"/></symbol>
<symbol id="i-book" viewBox="0 0 24 24" fill="none" stroke="currentColor" stroke-width="2" stroke-linecap="round" stroke-linejoin="round"><path d="M2 3h6a4 4 0 0 1 4 4v14a3 3 0 0 0-3-3H2z"/><path d="M22 3h-6a4 4 0 0 0-4 4v14a3 3 0 0 1 3-3h7z"/></symbol>
<symbol id="i-bookmark" viewBox="0 0 24 24" fill="none" stroke="currentColor" stroke-width="2" stroke-linecap="round" stroke-linejoin="round"><path d="m19 21-7-4-7 4V5a2 2 0 0 1 2-2h10a2 2 0 0 1 2 2v16z"/></symbol>
<symbol id="i-file" viewBox="0 0 24 24" fill="none" stroke="currentColor" stroke-width="2" stroke-linecap="round" stroke-linejoin="round"><path d="M15 2H6a2 2 0 0 0-2 2v16a2 2 0 0 0 2 2h12a2 2 0 0 0 2-2V7Z"/><path d="M14 2v4a2 2 0 0 0 2 2h4"/><path d="M10 9H8"/><path d="M16 13H8"/><path d="M16 17H8"/></symbol>
<symbol id="i-sliders" viewBox="0 0 24 24" fill="none" stroke="currentColor" stroke-width="2" stroke-linecap="round" stroke-linejoin="round"><line x1="21" x2="14" y1="4" y2="4"/><line x1="10" x2="3" y1="4" y2="4"/><line x1="21" x2="12" y1="12" y2="12"/><line x1="8" x2="3" y1="12" y2="12"/><line x1="21" x2="16" y1="20" y2="20"/><line x1="12" x2="3" y1="20" y2="20"/><line x1="14" x2="14" y1="2" y2="6"/><line x1="8" x2="8" y1="10" y2="14"/><line x1="16" x2="16" y1="18" y2="22"/></symbol>
<symbol id="i-external" viewBox="0 0 24 24" fill="none" stroke="currentColor" stroke-width="2" stroke-linecap="round" stroke-linejoin="round"><path d="M15 3h6v6"/><path d="M10 14 21 3"/><path d="M18 13v6a2 2 0 0 1-2 2H5a2 2 0 0 1-2-2V8a2 2 0 0 1 2-2h6"/></symbol>
<symbol id="i-monitor" viewBox="0 0 24 24" fill="none" stroke="currentColor" stroke-width="2" stroke-linecap="round" stroke-linejoin="round"><rect width="20" height="14" x="2" y="3" rx="2"/><line x1="8" x2="16" y1="21" y2="21"/><line x1="12" x2="12" y1="17" y2="21"/></symbol>
<symbol id="i-phone" viewBox="0 0 24 24" fill="none" stroke="currentColor" stroke-width="2" stroke-linecap="round" stroke-linejoin="round"><rect width="14" height="20" x="5" y="2" rx="2"/><path d="M12 18h.01"/></symbol>
<symbol id="i-copy" viewBox="0 0 24 24" fill="none" stroke="currentColor" stroke-width="2" stroke-linecap="round" stroke-linejoin="round"><rect width="14" height="14" x="8" y="8" rx="2"/><path d="M4 16c-1.1 0-2-.9-2-2V4c0-1.1.9-2 2-2h10c1.1 0 2 .9 2 2"/></symbol>
<symbol id="i-upload" viewBox="0 0 24 24" fill="none" stroke="currentColor" stroke-width="2" stroke-linecap="round" stroke-linejoin="round"><path d="M21 15v4a2 2 0 0 1-2 2H5a2 2 0 0 1-2-2v-4"/><path d="m17 8-5-5-5 5"/><path d="M12 3v12"/></symbol>
<symbol id="i-trash" viewBox="0 0 24 24" fill="none" stroke="currentColor" stroke-width="2" stroke-linecap="round" stroke-linejoin="round"><path d="M3 6h18"/><path d="M19 6v14a2 2 0 0 1-2 2H7a2 2 0 0 1-2-2V6"/><path d="M8 6V4a2 2 0 0 1 2-2h4a2 2 0 0 1 2 2v2"/></symbol>
<symbol id="i-check" viewBox="0 0 24 24" fill="none" stroke="currentColor" stroke-width="2" stroke-linecap="round" stroke-linejoin="round"><path d="M20 6 9 17l-5-5"/></symbol>
<symbol id="i-up" viewBox="0 0 24 24" fill="none" stroke="currentColor" stroke-width="2" stroke-linecap="round" stroke-linejoin="round"><path d="m18 15-6-6-6 6"/></symbol>
<symbol id="i-down" viewBox="0 0 24 24" fill="none" stroke="currentColor" stroke-width="2" stroke-linecap="round" stroke-linejoin="round"><path d="m6 9 6 6 6-6"/></symbol>
<symbol id="i-users" viewBox="0 0 24 24" fill="none" stroke="currentColor" stroke-width="2" stroke-linecap="round" stroke-linejoin="round"><path d="M16 21v-2a4 4 0 0 0-4-4H6a4 4 0 0 0-4 4v2"/><circle cx="9" cy="7" r="4"/><path d="M22 21v-2a4 4 0 0 0-3-3.87"/><path d="M16 3.13a4 4 0 0 1 0 7.75"/></symbol>
<symbol id="i-moon" viewBox="0 0 24 24" fill="none" stroke="currentColor" stroke-width="2" stroke-linecap="round" stroke-linejoin="round"><path d="M12 3a6 6 0 0 0 9 9 9 9 0 1 1-9-9Z"/></symbol>
<symbol id="i-x" viewBox="0 0 24 24" fill="none" stroke="currentColor" stroke-width="2" stroke-linecap="round" stroke-linejoin="round"><path d="M18 6 6 18"/><path d="m6 6 12 12"/></symbol>
<symbol id="i-qr" viewBox="0 0 24 24" fill="none" stroke="currentColor" stroke-width="2" stroke-linecap="round" stroke-linejoin="round"><rect width="5" height="5" x="3" y="3" rx="1"/><rect width="5" height="5" x="16" y="3" rx="1"/><rect width="5" height="5" x="3" y="16" rx="1"/><path d="M21 16h-3a2 2 0 0 0-2 2v3"/><path d="M21 21v.01"/><path d="M12 7v3a2 2 0 0 1-2 2H7"/><path d="M3 12h.01"/><path d="M12 3h.01"/><path d="M12 16v.01"/><path d="M16 12h1"/><path d="M21 12v.01"/><path d="M12 21v-1"/></symbol>
<symbol id="i-volume" viewBox="0 0 24 24" fill="none" stroke="currentColor" stroke-width="2" stroke-linecap="round" stroke-linejoin="round"><polygon points="11 5 6 9 2 9 2 15 6 15 11 19 11 5"/><path d="M15.54 8.46a5 5 0 0 1 0 7.07"/><path d="M19.07 4.93a10 10 0 0 1 0 14.14"/></symbol>
<symbol id="i-type" viewBox="0 0 24 24" fill="none" stroke="currentColor" stroke-width="2" stroke-linecap="round" stroke-linejoin="round"><polyline points="4 7 4 4 20 4 20 7"/><line x1="9" x2="15" y1="20" y2="20"/><line x1="12" x2="12" y1="4" y2="20"/></symbol>
<symbol id="i-languages" viewBox="0 0 24 24" fill="none" stroke="currentColor" stroke-width="2" stroke-linecap="round" stroke-linejoin="round"><path d="m5 8 6 6"/><path d="m4 14 6-6 2-3"/><path d="M2 5h12"/><path d="M7 2h1"/><path d="m22 22-5-10-5 10"/><path d="M14 18h6"/></symbol>
<symbol id="i-send" viewBox="0 0 24 24" fill="none" stroke="currentColor" stroke-width="2" stroke-linecap="round" stroke-linejoin="round"><path d="m22 2-7 20-4-9-9-4Z"/><path d="M22 2 11 13"/></symbol>
<symbol id="i-stop" viewBox="0 0 24 24" fill="none" stroke="currentColor" stroke-width="2" stroke-linecap="round" stroke-linejoin="round"><rect width="14" height="14" x="5" y="5" rx="2"/></symbol>
<symbol id="i-play" viewBox="0 0 24 24" fill="none" stroke="currentColor" stroke-width="2" stroke-linecap="round" stroke-linejoin="round"><polygon points="6 3 20 12 6 21 6 3"/></symbol>
<symbol id="i-arrow-down" viewBox="0 0 24 24" fill="none" stroke="currentColor" stroke-width="2" stroke-linecap="round" stroke-linejoin="round"><path d="M12 5v14"/><path d="m19 12-7 7-7-7"/></symbol>
<symbol id="i-plus" viewBox="0 0 24 24" fill="none" stroke="currentColor" stroke-width="2" stroke-linecap="round" stroke-linejoin="round"><path d="M5 12h14"/><path d="M12 5v14"/></symbol>
<symbol id="i-minus" viewBox="0 0 24 24" fill="none" stroke="currentColor" stroke-width="2" stroke-linecap="round" stroke-linejoin="round"><path d="M5 12h14"/></symbol>
<symbol id="i-sparkles" viewBox="0 0 24 24" fill="none" stroke="currentColor" stroke-width="2" stroke-linecap="round" stroke-linejoin="round"><path d="m12 3-1.9 5.8a2 2 0 0 1-1.3 1.3L3 12l5.8 1.9a2 2 0 0 1 1.3 1.3L12 21l1.9-5.8a2 2 0 0 1 1.3-1.3L21 12l-5.8-1.9a2 2 0 0 1-1.3-1.3Z"/></symbol>
<symbol id="i-wifi" viewBox="0 0 24 24" fill="none" stroke="currentColor" stroke-width="2" stroke-linecap="round" stroke-linejoin="round"><path d="M5 13a10 10 0 0 1 14 0"/><path d="M8.5 16.5a5 5 0 0 1 7 0"/><path d="M2 8.82a15 15 0 0 1 20 0"/><line x1="12" x2="12.01" y1="20" y2="20"/></symbol>
<symbol id="i-layout" viewBox="0 0 24 24" fill="none" stroke="currentColor" stroke-width="2" stroke-linecap="round" stroke-linejoin="round"><rect width="18" height="18" x="3" y="3" rx="2"/><path d="M3 9h18"/><path d="M9 21V9"/></symbol>
<symbol id="i-key" viewBox="0 0 24 24" fill="none" stroke="currentColor" stroke-width="2" stroke-linecap="round" stroke-linejoin="round"><circle cx="7.5" cy="15.5" r="5.5"/><path d="m21 2-9.6 9.6"/><path d="m15.5 7.5 3 3L22 7l-3-3"/></symbol>
<symbol id="i-image" viewBox="0 0 24 24" fill="none" stroke="currentColor" stroke-width="2" stroke-linecap="round" stroke-linejoin="round"><rect width="18" height="18" x="3" y="3" rx="2"/><circle cx="9" cy="9" r="2"/><path d="m21 15-3.086-3.086a2 2 0 0 0-2.828 0L6 21"/></symbol>
</svg>
